REM MD5 8da329edb6a9db036db5bf350ba5a5a8
FILE "Oyaji no Jikan - Nee-chan Mahjong de Shoubu ya! (Japan).bin" BINARY
  TRACK 01 MODE2/2352
    INDEX 01 00:00:00
  TRACK 02 AUDIO
    INDEX 00 00:24:34
    INDEX 01 00:26:34
  TRACK 03 AUDIO
    INDEX 00 05:34:38
    INDEX 01 05:36:38
  TRACK 04 AUDIO
    INDEX 00 10:48:03
    INDEX 01 10:50:03
REM LEADOUT 16:04:73
